<?xml version="1.0" standalone="no"?>
<!DOCTYPE svg PUBLIC "-//W3C//DTD SVG 20010904//EN"
 "http://www.w3.org/TR/2001/REC-SVG-20010904/DTD/svg10.dtd">
<svg version="1.0" xmlns="http://www.w3.org/2000/svg"
 width="700.000000pt" height="700.000000pt" viewBox="0 0 700.000000 700.000000"
 preserveAspectRatio="xMidYMid meet">
<metadata>
Created by potrace 1.14, written by Peter Selinger 2001-2017
</metadata>
<g transform="translate(0.000000,700.000000) scale(0.100000,-0.100000)"
fill="#000000" stroke="none">
<path d="M3409 6901 c-30 -16 -106 -59 -169 -96 -63 -37 -133 -78 -155 -90
-60 -32 -778 -446 -790 -455 -5 -4 -30 -19 -55 -32 -25 -14 -158 -90 -296
-170 -138 -80 -271 -157 -296 -171 -83 -46 -93 -52 -108 -63 -8 -6 -37 -24
-65 -39 -50 -27 -534 -305 -800 -459 l-140 -81 -3 -42 c-3 -40 -3 -41 60 -75
95 -53 104 -58 513 -295 345 -200 857 -495 945 -546 48 -27 190 -109 215 -124
11 -7 26 -15 34 -19 8 -4 64 -36 125 -72 61 -36 127 -74 146 -84 127 -72 178
-103 199 -122 53 -48 51 23 50 -1486 0 -873 -4 -1400 -10 -1400 -18 0 -104 48
-539 300 -239 139 -455 264 -480 277 -25 14 -85 49 -135 78 -49 29 -106 62
-125 73 -259 146 -499 290 -517 310 -11 14 -23 37 -25 51 -2 14 -2 595 -1
1291 2 696 1 1288 -2 1316 -8 65 -43 103 -147 157 -40 21 -80 42 -88 47 -70
44 -263 149 -269 146 -11 -7 -4 -3326 8 -3344 3 -5 33 -23 66 -41 33 -17 78
-41 100 -54 22 -13 92 -52 155 -86 63 -35 153 -85 200 -111 101 -57 555 -312
620 -348 25 -14 149 -84 275 -155 127 -72 253 -143 280 -157 28 -15 236 -134
464 -264 227 -130 417 -236 422 -236 5 0 9 -4 9 -10 0 -5 4 -10 9 -10 5 0 63
-31 130 -69 66 -39 122 -67 124 -63 2 4 3 903 2 1997 -1 2173 2 2028 -57 2082
-20 19 -218 135 -728 426 -124 71 -559 322 -705 407 -16 10 -106 61 -198 115
-148 86 -166 99 -150 110 17 12 426 249 508 295 22 12 45 26 50 30 6 4 30 19
55 32 25 14 117 67 205 118 88 51 174 100 190 110 35 20 451 262 498 290 18
10 43 25 57 33 14 7 41 23 60 34 275 160 321 184 360 185 44 0 49 -2 485 -254
138 -80 455 -263 705 -408 250 -144 536 -310 634 -368 174 -103 178 -106 156
-121 -37 -26 -163 -101 -235 -140 -16 -9 -70 -41 -120 -70 -49 -29 -119 -71
-155 -91 -36 -21 -208 -122 -383 -224 -174 -102 -320 -186 -323 -186 -3 0 -18
-8 -32 -19 -29 -19 -242 -139 -377 -211 -154 -81 -163 -91 -159 -160 1 -19 3
-932 3 -2027 l1 -1992 109 68 c223 141 1005 607 1231 734 19 11 80 45 135 77
121 69 391 217 630 345 39 21 95 51 125 67 30 17 156 84 280 151 124 66 243
131 265 143 l40 22 3 1667 2 1667 -42 -25 c-24 -14 -61 -35 -83 -47 -22 -12
-44 -26 -50 -30 -5 -4 -66 -38 -135 -75 -69 -37 -136 -77 -148 -89 -57 -51
-54 32 -53 -1370 l2 -1292 -23 -43 c-20 -37 -41 -54 -128 -106 -87 -52 -945
-547 -1060 -612 -19 -11 -147 -86 -285 -165 -269 -156 -322 -184 -332 -174 -3
3 -5 636 -5 1407 2 1600 -9 1434 99 1504 57 37 88 55 213 125 25 14 56 33 70
42 32 20 699 407 765 443 28 15 57 33 65 39 8 6 29 19 45 28 23 12 480 276
640 368 39 23 219 126 270 155 22 12 58 32 80 45 50 28 46 22 50 59 5 38 11
33 -255 186 -386 222 -559 322 -1010 583 -118 68 -231 133 -250 144 -19 11
-107 62 -195 113 -88 51 -176 102 -195 112 -19 11 -127 73 -240 138 -713 411
-793 455 -825 455 -18 0 -56 -13 -86 -29z"/>
</g>
</svg>
